<svg width="106" height="32" viewBox="0 0 106 32" fill="none" xmlns="http://www.w3.org/2000/svg">
<path d="M7 11.9399L5.66802 10.9999L0 14.9999L5.66802 18.9999L7 18.0599L2.67341 14.9999L7 11.9399Z" fill="#EDF2F7" fill-opacity="0.3"/>
<path d="M100.332 10.9999L99 11.9399L103.327 14.9999L99 18.0599L100.332 18.9999L106 14.9999L100.332 10.9999Z" fill="#CBD5E0"/>
<circle cx="54" cy="15.9999" r="4" fill="#D9D9D9"/>
<circle cx="29.0105" cy="15.6821" r="1.85789" fill="#EDF2F7" fill-opacity="0.3"/>
<circle cx="79.5998" cy="15.6821" r="1.85789" fill="#EDF2F7" fill-opacity="0.3"/>
<mask id="path-6-inside-1_2_9700" fill="white">
<path d="M45.6117 8.70458C43.958 10.7649 43.0898 13.3456 43.162 15.9866C43.2341 18.6275 44.2419 21.157 46.0056 23.124C47.7693 25.091 50.1742 26.3676 52.7917 26.7263C55.4091 27.085 58.0689 26.5024 60.2968 25.0824L58.7254 22.6172C57.0818 23.6648 55.1196 24.0946 53.1886 23.8299C51.2576 23.5653 49.4833 22.6235 48.1822 21.1723C46.881 19.7212 46.1375 17.8551 46.0843 15.9067C46.0311 13.9584 46.6716 12.0545 47.8916 10.5345L45.6117 8.70458Z"/>
</mask>
<path d="M45.6117 8.70458C43.958 10.7649 43.0898 13.3456 43.162 15.9866C43.2341 18.6275 44.2419 21.157 46.0056 23.124C47.7693 25.091 50.1742 26.3676 52.7917 26.7263C55.4091 27.085 58.0689 26.5024 60.2968 25.0824L58.7254 22.6172C57.0818 23.6648 55.1196 24.0946 53.1886 23.8299C51.2576 23.5653 49.4833 22.6235 48.1822 21.1723C46.881 19.7212 46.1375 17.8551 46.0843 15.9067C46.0311 13.9584 46.6716 12.0545 47.8916 10.5345L45.6117 8.70458Z" stroke="#D9D9D9" stroke-width="4" mask="url(#path-6-inside-1_2_9700)"/>
</svg>
